<svg width="64" height="64" viewBox="0 0 64 64" fill="none" xmlns="http://www.w3.org/2000/svg">
<path d="M3.85536 53.4487C2.07762 55.1854 2.04438 58.0344 3.78111 59.8122C5.51785 61.5899 8.3669 61.6232 10.1446 59.8864L7 56.6675L3.85536 53.4487ZM61.7468 7.63203C61.7758 5.14692 59.7847 3.10883 57.2996 3.07984L16.8023 2.60731C14.3172 2.57831 12.2791 4.56939 12.2501 7.0545C12.2211 9.53961 14.2122 11.5777 16.6973 11.6067L52.6949 12.0267L52.2749 48.0243C52.2459 50.5094 54.2369 52.5475 56.722 52.5765C59.2072 52.6055 61.2452 50.6144 61.2742 48.1293L61.7468 7.63203ZM7 56.6675L10.1446 59.8864L60.3917 10.7984L57.2471 7.57953L54.1024 4.36064L3.85536 53.4487L7 56.6675Z" fill="#00FFB7"/>
</svg>
